<?xml version="1.0" encoding="utf-8"?>
<!-- Generator: Adobe Illustrator 14.0.0, SVG Export Plug-In . SVG Version: 6.00 Build 43363)  -->
<!DOCTYPE svg PUBLIC "-//W3C//DTD SVG 1.1//EN" "http://www.w3.org/Graphics/SVG/1.1/DTD/svg11.dtd">
<svg version="1.1" id="Ebene_1" xmlns="http://www.w3.org/2000/svg" xmlns:xlink="http://www.w3.org/1999/xlink" x="0px" y="0px"
	 width="613px" height="161.672px" viewBox="0 0 613 161.672" enable-background="new 0 0 613 161.672" xml:space="preserve">
<text transform="matrix(1 0 0 1 158.5776 86.3677)" font-family="'Kefa-Regular'" font-size="103.6513">RESTORE</text>
<g>
	<g>
		<path fill-rule="evenodd" clip-rule="evenodd" fill="none" stroke="#000000" stroke-width="0.5263" stroke-linecap="round" d="
			M6.95,43.625c-0.016,11.549,14.466,7.931,20.055,14.09c-4.413,4.772-9.149,8.433-10.173,15.409
			c-1.358,9.247,3.504,18.338,11.894,22.751c0.423,4.031-2.13,8.109-1.761,12.354c-5.071,7.352-3.325,16.967-2.382,24.838
			c-6.818-0.729-12.875,10.367-6.603,13.99c3.89,2.246,12.095-0.148,16.69,0.586c5.956,0.953,11.845,3.727,17.843,4.582
			c4.832,0.689,9.673-0.641,13.88-0.162c5.025,0.572,8.519,3.109,13.269,1.621c15.776-4.945,23.823-19.283,24.277-34.574
			c0.39-13.163-3.287-27.525,0.721-40.029c13.689,1.918,23.828-8.084,20.708-23.347c-3.26-15.95-24.115-29.144-39.196-18.032
			c-7.736,5.7-7.977,14.647-12.842,23.436c-7.626-12.189-18.333-22.107-23.721-35.586c3.401-5.263,7.296-13.695,1.026-17.579
			c-4.853-3.005-9.003,2.004-12.773,5.446c-1.38-0.173-2.833-0.966-4.343-0.656c-2.432,0.522-4.327,1.992-6.169,3.47
			C13.281,17.192,5.11,30.391,6.95,43.625"/>
	</g>
</g>
<text transform="matrix(1 0 0 1 160.8809 144.9771)"><tspan x="0" y="0" font-family="'Kefa-Regular'" font-size="52.9773">3D</tspan><tspan x="67.411" y="0" font-family="'Kokonor'" font-size="52.9773"> </tspan><tspan x="83.712" y="0" font-family="'Kefa-Regular'" font-size="52.9773">Reconstruction</tspan></text>
</svg>
